<svg fill="none" height="64" viewBox="0 0 64 64" width="64" xmlns="http://www.w3.org/2000/svg" xmlns:xlink="http://www.w3.org/1999/xlink" id="fi_13895256"><linearGradient id="paint0_linear_2813_2012" gradientUnits="userSpaceOnUse" x1="78.644" x2="25.425" y1="74.123" y2="11.863"><stop offset=".00265844" stop-color="#ff37df"></stop><stop offset="1" stop-color="#6e00ff"></stop></linearGradient><g fill="url(#paint0_linear_2813_2012)"><path clip-rule="evenodd" d="m2 21v-9.8571c0-1.88472 1.17625-3.34223 2.51105-4.36685 1.3636-1.04672 3.2111-1.90313 5.31499-2.58621 4.22986-1.37334 9.94806-2.18984 16.17396-2.18984s11.944.8165 16.174 2.18984c2.1038.68308 3.9513 1.53949 5.3149 2.58621 1.3348 1.02462 2.5111 2.48213 2.5111 4.36685v9.8571c0 .1581-.1096.689-1.2198 1.4966-1.0663.7758-2.738 1.5577-4.9836 2.2487-4.4668 1.3744-10.7593 2.2547-17.7966 2.2547s-13.3298-.8803-17.79661-2.2547c-2.24562-.691-3.91727-1.4729-4.98363-2.2487-1.11015-.8076-1.21976-1.3385-1.21976-1.4966zm4-9.8571c0-.0878.05496-.5094.94668-1.19388.86293-.6624 2.23725-1.34515 4.11462-1.95468 3.7325-1.21185 9.0144-1.99434 14.9387-1.99434s11.2062.78249 14.9387 1.99434c1.8774.60953 3.2517 1.29228 4.1146 1.95468.8917.68448.9467 1.10608.9467 1.19388 0 .0877-.055.5093-.9467 1.1938-.8629.6624-2.2372 1.3451-4.1146 1.9547-3.7325 1.2118-9.0144 1.9943-14.9387 1.9943s-11.2062-.7825-14.9387-1.9943c-1.87737-.6096-3.25169-1.2923-4.11462-1.9547-.89172-.6845-.94668-1.1061-.94668-1.1938z" fill-rule="evenodd"></path><path d="m2 26.466v8.534c0 .1581.10961.689 1.21976 1.4966 1.06636.7758 2.73801 1.5577 4.98363 2.2487 4.46681 1.3744 10.75931 2.2547 17.79661 2.2547 6.2077 0 11.8358-.685 16.1424-1.7898l.9821-4.3188c.5175-2.2762 2.5412-3.8914 4.8755-3.8914.7061 0 1.3838.1478 2 .417v-4.951c-1.4036.8159-3.1178 1.515-5.0271 2.1024-4.9433 1.5211-11.6508 2.4316-18.9729 2.4316s-14.0296-.9105-18.97295-2.4316c-1.90921-.5874-3.62348-1.2865-5.02705-2.1024z"></path><path d="m31 48c0-1.2139.4368-2.3438 1.1762-3.2216-1.9886.1453-4.0567.2216-6.1762.2216-7.3221 0-14.0296-.9106-18.97295-2.4316-1.90921-.5874-3.62348-1.2865-5.02705-2.1024v6.3911c0 1.8847 1.17625 3.3422 2.51105 4.3668 1.3636 1.0468 3.2111 1.9032 5.31499 2.5863 4.22986 1.3733 9.94806 2.1898 16.17396 2.1898 5.4643 0 10.5373-.6289 14.5565-1.7113-.2465-.1378-.5148-.242-.7987-.3066l-4.8664-1.1066c-2.2762-.5175-3.8914-2.5412-3.8914-4.8755z"></path><path d="m48 34c.9337 0 1.7432.6461 1.9502 1.5565l1.1066 4.8664c.5118 2.2509 2.2694 4.0085 4.5203 4.5203l4.8664 1.1066c.9104.207 1.5565 1.0165 1.5565 1.9502s-.6461 1.7432-1.5565 1.9502l-4.8664 1.1066c-2.2509.5118-4.0085 2.2694-4.5203 4.5203l-1.1066 4.8664c-.207.9104-1.0165 1.5565-1.9502 1.5565s-1.7432-.6461-1.9502-1.5565l-1.1066-4.8664c-.5118-2.2509-2.2694-4.0085-4.5203-4.5203l-4.8664-1.1066c-.9104-.207-1.5565-1.0165-1.5565-1.9502s.6461-1.7432 1.5565-1.9502l4.8664-1.1066c2.2509-.5118 4.0085-2.2694 4.5203-4.5203l1.1066-4.8664c.207-.9104 1.0165-1.5565 1.9502-1.5565z"></path></g></svg>